<?xml version="1.0" encoding="utf-8"?>
<!-- Generator: Adobe Illustrator 18.1.0, SVG Export Plug-In . SVG Version: 6.00 Build 0)  -->
<!DOCTYPE svg PUBLIC "-//W3C//DTD SVG 1.1//EN" "http://www.w3.org/Graphics/SVG/1.1/DTD/svg11.dtd">
<svg version="1.1" id="Layer_1" xmlns="http://www.w3.org/2000/svg" xmlns:xlink="http://www.w3.org/1999/xlink" x="0px" y="0px"
	 width="214px" height="206px" viewBox="0 0 214 206" enable-background="new 0 0 214 206" xml:space="preserve">
<path fill="#272F32" d="M67.8,96.4c0.5,0.5,5.4,7.8,8.6,16.3c3.1,8.6,4.6,10.4,3.9,12.6c-0.7,2.2-2.2,5.6-0.8,6.9
	c1.4,1.3,3.1-3.1,3.1-3.1s0.5,8.7,5.8,8.6c5.2-0.2-0.4-10.8-3.1-14.7c-2.7-3.9-3-12.6-4.3-17.2c-1.3-4.6-5.9-17.1-12.3-20.7
	s-8.1-6.9-8.3-8.9l0.4-1.2c0,0,4.5-2.4,5.5-7.8c0,0,5.9-4.8,3.4-12.9c0,0-0.5,2.3-3.3,3.7c0,0,2.2-2.3,1.4-7.3s-5.5-23.3-11.3-30.8
	c-5.8,7.5-10.5,25.8-11.2,30.8c-0.8,5,1.4,7.3,1.4,7.3c-2.8-1.4-3.3-3.7-3.3-3.7c-2.5,8.2,3.4,12.9,3.4,12.9c1,5.4,5.5,7.8,5.5,7.8
	l0.8,1.2c-0.2,2-1.9,5.3-8.3,8.9s-11,16.1-12.3,20.7c-1.3,4.6-1.6,13.3-4.3,17.2c-2.7,3.9-8.2,14.6-3.1,14.7
	c5.2,0.1,5.8-8.6,5.8-8.6s1.8,4.4,3.1,3.1c1.4-1.3-0.1-4.6-0.8-6.9c-0.7-2.2,0.8-4.1,3.9-12.6c3.1-8.6,8.1-15.9,8.6-16.3l0.2-0.3
	c1-1.5-1.8,12.2-3.2,19.4c-1.4,7.3-5.7,17.7-6.2,21.2c-0.5,3.5,1.3,2.7,1.3,2.7s-2.5,17.7-2.5,19.4c-0.1,1.7,2.1,2,2.7,2.3
	c0.6,0.3-0.8,15.8-0.8,15.8c-1.2,0.1-1.7,2.2-0.9,6.9c0.8,4.6-4.4,8.4-5.9,5.1c-1.6-3.3,2.5-9.3,2.5-9.3s-4.1,0.9-6.7,5.9
	c-2.5,5-1.2,9.9,6.7,8.7c7.8-1.2,11.7-4.6,11.7-7.4s0.3-3.9,1.3-5.1c1-1.2,1.2-2.7-0.7-5.1c-1.8-2.4-1.5-4.4-1.1-8.2s0-6.6,2.1-8.2
	c2.1-1.6,3.1-2.3,2.9-6.4c-0.2-4.1,0.8-12.2,0.8-12.2s3.4,0.5,3.7-0.2c0.3-0.6,3.1-5.8,3.1-5.8s0.7,6.2,1.5,6.7
	c0.8,0.5,2.4,0.7,2.4,0.7s-1.6,15.8,5.8,17.5c0,0,1.2,14.6,0.2,16.7s-3.1,2.4-2.9,5.6s1,2.8,0.2,6.4c-0.8,3.5,9,5.7,15.6,4.8
	c6.6-0.9,13.4-6.1,1.8-13.1c0,0,4.4,7.8,0.3,8.6c-4.1,0.8-6.2-2.4-6.6-4.8c-0.4-2.4,0-3.1-0.4-4.4c-0.4-1.2-0.5-1.9-0.8-3.8
	c-0.4-1.9-1.7-6.7-2-15.6c0,0,2.5,0.2,2.8-3.3s-2.2-16.5-2.3-17.5c-0.1-0.9,2.5-0.1,2.9-2.1c0.5-2-3-15.4-5.1-23.9
	C68.1,105.8,67.4,96,67.8,96.4"/>
<text transform="matrix(1 0 0 1 104.1582 195.3593)" fill="#272F32" font-family="'AdobeTextPro-Regular'" font-size="93.0675">elf</text>
</svg>
